<mxfile host="app.diagrams.net" modified="2024-03-29T22:42:26.667Z" agent="Mozilla/5.0 (Macintosh; Intel Mac OS X 10_15_7) AppleWebKit/537.36 (KHTML, like Gecko) Chrome/121.0.0.0 Safari/537.36" etag="zFJWvtE3fKFDQS7RmqKy" version="24.2.1" type="device">
  <diagram name="PÃ¡gina-1" id="-WPTHeKl3aXdvxN7fgxD">
    <mxGraphModel dx="1774" dy="2290" grid="1" gridSize="10" guides="1" tooltips="1" connect="1" arrows="1" fold="1" page="1" pageScale="1" pageWidth="827" pageHeight="1169" math="0" shadow="0">
      <root>
        <mxCell id="0" />
        <mxCell id="1" parent="0" />
        <mxCell id="7wbXmkqmdcYjqiF1gQqN-10" value="" style="rounded=0;whiteSpace=wrap;html=1;" vertex="1" parent="1">
          <mxGeometry x="40" y="500" width="520" height="240" as="geometry" />
        </mxCell>
        <mxCell id="7wbXmkqmdcYjqiF1gQqN-5" value="&lt;font style=&quot;font-size: 16px;&quot;&gt;Projects&amp;amp;&lt;/font&gt;&lt;div style=&quot;font-size: 16px;&quot;&gt;&lt;font style=&quot;font-size: 16px;&quot;&gt;TasksDB&lt;/font&gt;&lt;/div&gt;" style="shape=cylinder3;whiteSpace=wrap;html=1;boundedLbl=1;backgroundOutline=1;size=15;shadow=0;" vertex="1" parent="1">
          <mxGeometry x="392.5" y="760" width="105" height="130" as="geometry" />
        </mxCell>
        <mxCell id="7wbXmkqmdcYjqiF1gQqN-7" value="" style="endArrow=classic;html=1;rounded=0;entryX=0.5;entryY=0;entryDx=0;entryDy=0;entryPerimeter=0;shadow=0;" edge="1" parent="1" target="7wbXmkqmdcYjqiF1gQqN-5">
          <mxGeometry width="50" height="50" relative="1" as="geometry">
            <mxPoint x="445" y="680" as="sourcePoint" />
            <mxPoint x="485" y="690" as="targetPoint" />
            <Array as="points">
              <mxPoint x="445" y="680" />
            </Array>
          </mxGeometry>
        </mxCell>
        <mxCell id="7wbXmkqmdcYjqiF1gQqN-8" value="" style="endArrow=classic;html=1;rounded=0;entryX=0.5;entryY=0;entryDx=0;entryDy=0;entryPerimeter=0;" edge="1" parent="1" target="7wbXmkqmdcYjqiF1gQqN-15">
          <mxGeometry width="50" height="50" relative="1" as="geometry">
            <mxPoint x="154.5" y="680" as="sourcePoint" />
            <mxPoint x="154.5" y="750" as="targetPoint" />
            <Array as="points">
              <mxPoint x="154.5" y="680" />
            </Array>
          </mxGeometry>
        </mxCell>
        <mxCell id="7wbXmkqmdcYjqiF1gQqN-11" value="&lt;font style=&quot;font-size: 16px;&quot;&gt;Users Microservice&lt;/font&gt;" style="rounded=0;whiteSpace=wrap;html=1;" vertex="1" parent="1">
          <mxGeometry x="60" y="580" width="190" height="90" as="geometry" />
        </mxCell>
        <mxCell id="7wbXmkqmdcYjqiF1gQqN-13" value="&lt;font style=&quot;font-size: 16px;&quot;&gt;Projects and Tasks Microservice&lt;/font&gt;" style="rounded=0;whiteSpace=wrap;html=1;" vertex="1" parent="1">
          <mxGeometry x="350" y="580" width="190" height="90" as="geometry" />
        </mxCell>
        <mxCell id="7wbXmkqmdcYjqiF1gQqN-14" value="Backend" style="text;html=1;align=center;verticalAlign=middle;resizable=0;points=[];autosize=1;strokeColor=none;fillColor=none;fontStyle=1;fontSize=16;" vertex="1" parent="1">
          <mxGeometry x="30" y="470" width="90" height="30" as="geometry" />
        </mxCell>
        <mxCell id="7wbXmkqmdcYjqiF1gQqN-15" value="&lt;span style=&quot;font-size: 16px;&quot;&gt;UsersDB&lt;/span&gt;" style="shape=cylinder3;whiteSpace=wrap;html=1;boundedLbl=1;backgroundOutline=1;size=15;shadow=0;" vertex="1" parent="1">
          <mxGeometry x="102.5" y="760" width="105" height="130" as="geometry" />
        </mxCell>
        <mxCell id="7wbXmkqmdcYjqiF1gQqN-16" value="&lt;font style=&quot;font-size: 16px;&quot;&gt;Frontend&lt;/font&gt;" style="rounded=0;whiteSpace=wrap;html=1;fontStyle=1" vertex="1" parent="1">
          <mxGeometry x="120" width="370" height="320" as="geometry" />
        </mxCell>
        <mxCell id="7wbXmkqmdcYjqiF1gQqN-17" value="" style="endArrow=classic;html=1;rounded=0;" edge="1" parent="1">
          <mxGeometry width="50" height="50" relative="1" as="geometry">
            <mxPoint x="280" y="370" as="sourcePoint" />
            <mxPoint x="280" y="500" as="targetPoint" />
            <Array as="points">
              <mxPoint x="280" y="320" />
              <mxPoint x="280" y="370" />
            </Array>
          </mxGeometry>
        </mxCell>
        <mxCell id="7wbXmkqmdcYjqiF1gQqN-19" value="" style="rounded=0;whiteSpace=wrap;html=1;" vertex="1" parent="1">
          <mxGeometry x="880" y="180" width="90" height="180" as="geometry" />
        </mxCell>
        <mxCell id="7wbXmkqmdcYjqiF1gQqN-20" value="USERS&lt;br&gt;&lt;div&gt;&lt;span style=&quot;background-color: initial;&quot;&gt;MICROSERVICE&lt;/span&gt;&amp;nbsp; &lt;br&gt;&lt;br&gt;&lt;/div&gt;" style="rounded=0;whiteSpace=wrap;html=1;" vertex="1" parent="1">
          <mxGeometry x="620" y="180" width="260" height="180" as="geometry" />
        </mxCell>
        <mxCell id="7wbXmkqmdcYjqiF1gQqN-24" value="" style="endArrow=classic;html=1;rounded=0;exitX=1;exitY=0.5;exitDx=0;exitDy=0;entryX=0;entryY=0.5;entryDx=0;entryDy=0;strokeColor=default;labelBackgroundColor=default;fontColor=default;" edge="1" parent="1">
          <mxGeometry width="50" height="50" relative="1" as="geometry">
            <mxPoint x="497.5" y="46" as="sourcePoint" />
            <mxPoint x="627.5" y="46" as="targetPoint" />
            <Array as="points" />
          </mxGeometry>
        </mxCell>
        <mxCell id="7wbXmkqmdcYjqiF1gQqN-25" value="CREATE USER" style="text;html=1;strokeColor=none;fillColor=none;align=center;verticalAlign=middle;whiteSpace=wrap;rounded=0;" vertex="1" parent="1">
          <mxGeometry x="895" y="210" width="60" height="30" as="geometry" />
        </mxCell>
        <mxCell id="7wbXmkqmdcYjqiF1gQqN-27" value="GET USER" style="text;html=1;strokeColor=none;fillColor=none;align=center;verticalAlign=middle;whiteSpace=wrap;rounded=0;" vertex="1" parent="1">
          <mxGeometry x="895" y="280" width="60" height="30" as="geometry" />
        </mxCell>
        <mxCell id="7wbXmkqmdcYjqiF1gQqN-31" value="http://localhost:8080" style="text;html=1;align=center;verticalAlign=middle;resizable=0;points=[];autosize=1;strokeColor=none;fillColor=none;" vertex="1" parent="1">
          <mxGeometry x="710" y="160" width="120" height="20" as="geometry" />
        </mxCell>
        <mxCell id="7wbXmkqmdcYjqiF1gQqN-32" value="" style="endArrow=classic;html=1;rounded=0;entryX=1;entryY=0.5;entryDx=0;entryDy=0;strokeColor=default;labelBackgroundColor=default;fontColor=default;" edge="1" parent="1">
          <mxGeometry width="50" height="50" relative="1" as="geometry">
            <mxPoint x="627.5" y="69" as="sourcePoint" />
            <mxPoint x="497.5" y="69" as="targetPoint" />
          </mxGeometry>
        </mxCell>
        <mxCell id="7wbXmkqmdcYjqiF1gQqN-33" value="REQUEST" style="text;html=1;strokeColor=none;fillColor=none;align=center;verticalAlign=middle;whiteSpace=wrap;rounded=0;fontColor=default;" vertex="1" parent="1">
          <mxGeometry x="531.5" y="24" width="60" height="30" as="geometry" />
        </mxCell>
        <mxCell id="7wbXmkqmdcYjqiF1gQqN-34" value="RESPONSE" style="text;html=1;strokeColor=none;fillColor=none;align=center;verticalAlign=middle;whiteSpace=wrap;rounded=0;fontColor=default;" vertex="1" parent="1">
          <mxGeometry x="531.5" y="47" width="60" height="30" as="geometry" />
        </mxCell>
        <mxCell id="7wbXmkqmdcYjqiF1gQqN-35" value="" style="endArrow=classic;html=1;rounded=0;exitX=1;exitY=0.5;exitDx=0;exitDy=0;entryX=0;entryY=0.5;entryDx=0;entryDy=0;strokeColor=default;labelBackgroundColor=default;fontColor=default;" edge="1" parent="1">
          <mxGeometry width="50" height="50" relative="1" as="geometry">
            <mxPoint x="490" y="247.5" as="sourcePoint" />
            <mxPoint x="620" y="247.5" as="targetPoint" />
            <Array as="points" />
          </mxGeometry>
        </mxCell>
        <mxCell id="7wbXmkqmdcYjqiF1gQqN-36" value="" style="endArrow=classic;html=1;rounded=0;entryX=1;entryY=0.5;entryDx=0;entryDy=0;strokeColor=default;labelBackgroundColor=default;fontColor=default;" edge="1" parent="1">
          <mxGeometry width="50" height="50" relative="1" as="geometry">
            <mxPoint x="620" y="270.5" as="sourcePoint" />
            <mxPoint x="490" y="270.5" as="targetPoint" />
          </mxGeometry>
        </mxCell>
        <mxCell id="7wbXmkqmdcYjqiF1gQqN-37" value="REQUEST" style="text;html=1;strokeColor=none;fillColor=none;align=center;verticalAlign=middle;whiteSpace=wrap;rounded=0;fontColor=default;" vertex="1" parent="1">
          <mxGeometry x="524" y="225.5" width="60" height="30" as="geometry" />
        </mxCell>
        <mxCell id="7wbXmkqmdcYjqiF1gQqN-38" value="RESPONSE" style="text;html=1;strokeColor=none;fillColor=none;align=center;verticalAlign=middle;whiteSpace=wrap;rounded=0;fontColor=default;" vertex="1" parent="1">
          <mxGeometry x="524" y="248.5" width="60" height="30" as="geometry" />
        </mxCell>
        <mxCell id="7wbXmkqmdcYjqiF1gQqN-41" value="" style="rounded=0;whiteSpace=wrap;html=1;" vertex="1" parent="1">
          <mxGeometry x="880" y="-60" width="90" height="210" as="geometry" />
        </mxCell>
        <mxCell id="7wbXmkqmdcYjqiF1gQqN-42" value="&lt;div&gt;PROJECTS &amp;amp; TASKS&amp;nbsp;&lt;/div&gt;&lt;div&gt;MICROSERVICE&lt;/div&gt;" style="rounded=0;whiteSpace=wrap;html=1;" vertex="1" parent="1">
          <mxGeometry x="620" y="-60" width="260" height="210" as="geometry" />
        </mxCell>
        <mxCell id="7wbXmkqmdcYjqiF1gQqN-43" value="CREATE PROJECT" style="text;html=1;strokeColor=none;fillColor=none;align=center;verticalAlign=middle;whiteSpace=wrap;rounded=0;" vertex="1" parent="1">
          <mxGeometry x="895" y="-50" width="60" height="30" as="geometry" />
        </mxCell>
        <mxCell id="7wbXmkqmdcYjqiF1gQqN-44" value="GET PROJECTS" style="text;html=1;strokeColor=none;fillColor=none;align=center;verticalAlign=middle;whiteSpace=wrap;rounded=0;" vertex="1" parent="1">
          <mxGeometry x="895" y="-10" width="60" height="30" as="geometry" />
        </mxCell>
        <mxCell id="7wbXmkqmdcYjqiF1gQqN-45" value="DELETE PROJECTS" style="text;html=1;strokeColor=none;fillColor=none;align=center;verticalAlign=middle;whiteSpace=wrap;rounded=0;" vertex="1" parent="1">
          <mxGeometry x="895" y="24" width="60" height="30" as="geometry" />
        </mxCell>
        <mxCell id="7wbXmkqmdcYjqiF1gQqN-46" value="CREATE TASKS" style="text;html=1;strokeColor=none;fillColor=none;align=center;verticalAlign=middle;whiteSpace=wrap;rounded=0;" vertex="1" parent="1">
          <mxGeometry x="895" y="60" width="60" height="30" as="geometry" />
        </mxCell>
        <mxCell id="7wbXmkqmdcYjqiF1gQqN-47" value="http://localhost:8081" style="text;html=1;align=center;verticalAlign=middle;resizable=0;points=[];autosize=1;strokeColor=none;fillColor=none;" vertex="1" parent="1">
          <mxGeometry x="705" y="-90" width="130" height="30" as="geometry" />
        </mxCell>
        <mxCell id="7wbXmkqmdcYjqiF1gQqN-63" value="DELETE TASKS" style="text;html=1;strokeColor=none;fillColor=none;align=center;verticalAlign=middle;whiteSpace=wrap;rounded=0;" vertex="1" parent="1">
          <mxGeometry x="895" y="100" width="60" height="30" as="geometry" />
        </mxCell>
      </root>
    </mxGraphModel>
  </diagram>
</mxfile>
